<svg id="visual" viewBox="0 0 1920 1080" width="1920" height="1080" xmlns="http://www.w3.org/2000/svg" xmlns:xlink="http://www.w3.org/1999/xlink" version="1.1"><rect width="1920" height="1080" fill="#5f69ff"></rect><g><g transform="translate(254 394)"><path d="M215 -167.5C281.2 -88.5 339.1 1.1 321.4 71.3C303.7 141.5 210.4 192.4 124.1 219.3C37.7 246.2 -41.8 249.1 -105.2 218.5C-168.6 188 -215.9 124 -230.3 54.4C-244.6 -15.1 -226.1 -90.3 -182.2 -164.3C-138.4 -238.2 -69.2 -310.9 2.6 -313C74.4 -315.1 148.8 -246.6 215 -167.5Z" fill="#0ff75c"></path></g><g transform="translate(1713 507)"><path d="M210.2 -153.1C262.5 -102.1 288 -15.3 272.8 66.7C257.6 148.6 201.7 225.6 126.7 260.8C51.7 296 -42.2 289.4 -115.8 250.3C-189.4 211.1 -242.5 139.3 -250.4 67.7C-258.3 -3.8 -221 -75.1 -171.7 -125.5C-122.4 -175.8 -61.2 -205.2 8.9 -212.3C79 -219.4 158 -204.2 210.2 -153.1Z" fill="#0ff75c"></path></g><g transform="translate(828 1034)"><path d="M180.1 -146.3C223.8 -88.9 243 -14.5 229 54.4C214.9 123.2 167.7 186.6 106.6 212.7C45.6 238.7 -29.2 227.3 -93.3 195.7C-157.4 164.1 -210.8 112.2 -228.5 48.2C-246.2 -15.7 -228.3 -91.7 -184.3 -149.2C-140.2 -206.8 -70.1 -245.8 -0.9 -245C68.2 -244.3 136.4 -203.7 180.1 -146.3Z" fill="#0ff75c"></path></g></g></svg>